<?xml version="1.0" encoding="utf-8"?>
<!-- Generator: Adobe Illustrator 19.2.1, SVG Export Plug-In . SVG Version: 6.00 Build 0)  -->
<!DOCTYPE svg PUBLIC "-//W3C//DTD SVG 1.1//EN" "http://www.w3.org/Graphics/SVG/1.1/DTD/svg11.dtd">
<svg version="1.1" xmlns="http://www.w3.org/2000/svg" xmlns:xlink="http://www.w3.org/1999/xlink" x="0px" y="0px" width="25.6px"
	 height="38px" viewBox="0 0 25.6 38" style="enable-background:new 0 0 25.6 38;" xml:space="preserve">
<style type="text/css">
	.st0{fill:#FF5F2E;stroke:#FCBE32;stroke-miterlimit:10;}
	.st1{fill:#FCBE32;}
</style>
<g id="Capa_1">
	<path class="st0" d="M21.5,4.1c-2.4-2.4-5.3-3.6-8.7-3.6S6.6,1.7,4.1,4.1c-2.4,2.5-3.6,5.3-3.6,8.7c0,1.8,0.3,3.3,0.7,4.3L10,35.8
		c0.3,0.6,0.6,0.9,1.2,1.2c0.6,0.4,1,0.6,1.6,0.6c0.6,0,1.2-0.1,1.6-0.4c0.4-0.3,0.9-0.7,1.2-1.2l8.7-18.7c0.6-1.2,0.7-2.5,0.7-4.3
		C25.2,9.4,24.1,6.6,21.5,4.1z"/>
</g>
<g id="Layer_2">
	<path class="st1" d="M17.2,17.2c-1.2,1.2-2.6,1.8-4.2,1.8s-3.1-0.6-4.2-1.8s-1.8-2.6-1.8-4.2c0-1.8,0.6-3.1,1.8-4.2
		s2.6-1.8,4.2-1.8c1.8,0,3.1,0.6,4.2,1.8c1.2,1.2,1.8,2.6,1.8,4.2S18.4,16,17.2,17.2z"/>
</g>
</svg>
